<svg width="554" height="127" viewBox="0 0 554 127" fill="none" xmlns="http://www.w3.org/2000/svg">
<g clip-path="url(#clip0_75_671)">
<path d="M0.0297852 39.1166C0.782486 18.7622 18.4896 0.650302 38.8647 0.0373535C38.8051 12.9018 38.8125 25.7663 38.7454 38.6382C38.8349 39.1988 38.1567 39.3408 37.7468 39.296C25.1745 39.3034 12.5947 39.3333 0.0297852 39.1166Z" fill="white"/>
<path d="M43.3662 39.2885C44.104 18.8744 61.8558 0.837213 82.2458 0.0598145C82.1788 13.156 82.1788 26.2447 82.134 39.3409C69.2114 39.3334 56.2888 39.3334 43.3662 39.2885Z" fill="white"/>
<path d="M104.119 0.127038C110.923 -0.680261 117.988 2.39196 121.937 8.02062C126.357 14.038 126.849 22.5894 123.279 29.1225C119.135 36.9862 109.209 41.3366 100.69 38.5335C91.1885 35.7902 84.9731 25.0486 87.3281 15.4059C89.0645 7.50485 96.0177 0.956761 104.119 0.127038Z" fill="white"/>
<path d="M0 43.6837C12.9152 43.8108 25.8601 43.4371 38.7604 43.8781C38.5741 56.8995 38.4399 69.9209 38.4697 82.9498C18.0499 82.4191 0.521674 64.0082 0 43.6837Z" fill="white"/>
<path d="M43.3291 43.8183C56.2666 43.6539 69.2041 43.7062 82.1342 43.9005C82.1714 56.9967 81.8286 70.0779 81.8659 83.1666C61.5057 82.2547 43.9477 64.2176 43.3291 43.8183Z" fill="white"/>
<path d="M86.851 43.8557C107.278 44.4986 124.851 62.8272 125.462 83.1891C112.555 83.2115 99.6469 83.1741 86.7318 83.1293C86.6349 70.0406 86.8212 56.9444 86.851 43.8557Z" fill="white"/>
<path d="M130.426 43.8931C150.786 44.7826 168.642 62.887 169.008 83.3834C156.07 83.4806 143.14 83.2713 130.21 83.204C130.031 70.1004 130.471 57.0042 130.426 43.8931Z" fill="white"/>
<path d="M59.8215 88.0405C69.0253 86.4334 78.5869 92.7124 81.0984 101.682C83.4981 109.419 80.845 118.778 73.8918 123.24C65.709 129.646 52.9801 127.284 46.9213 119.099C44.3278 115.347 43.0236 110.727 43.3664 106.16C43.6794 97.2272 51.0052 89.2215 59.8215 88.0405Z" fill="white"/>
<path d="M86.6729 126.925C86.7176 113.874 86.6729 100.823 86.7399 87.7712C99.6625 87.8535 112.6 87.6965 125.508 87.9805C124.83 100.666 118.003 112.76 107.585 119.966C101.235 123.771 94.1253 126.559 86.6729 126.925Z" fill="white"/>
<path d="M130.15 88.0104C143.095 87.9506 156.047 88.0254 168.992 88.0628C168.538 101.331 160.966 114.27 149.519 120.998C143.527 124.227 137.044 126.806 130.143 127C130.157 114.001 130.195 101.002 130.15 88.0104Z" fill="white"/>
</g>
<path d="M481.521 100V35.1125H500.889V62.8179C502.339 60.2286 505.084 57.6048 509.123 54.9465C513.163 52.2536 518.427 50.9245 524.918 50.959C535.033 50.9245 542.301 52.4608 546.72 55.5679C551.173 58.6405 553.348 63.5256 553.245 70.2233V100H533.825V73.5375C533.825 68.8423 532.651 65.4762 530.304 63.4393C527.956 61.4024 524.504 60.384 519.946 60.384C515.596 60.384 511.799 61.4024 508.554 63.4393C505.308 65.4417 502.771 67.6685 500.941 70.1197V100H481.521Z" fill="white"/>
<path d="M423.313 62.2482V52.4089H475.306V62.2482H423.313ZM436.83 82.9107V52.7196L437.399 53.1857V36.5625H455.835V78.0429C455.835 83.5667 456.663 87.3988 458.321 89.5393C459.978 91.6452 462.325 92.6982 465.363 92.6982C467.124 92.6982 468.609 92.6292 469.817 92.4911C471.06 92.3185 472.216 92.094 473.287 91.8179L473.753 99.8964C472.441 100.138 470.508 100.38 467.953 100.621C465.398 100.898 461.997 101.036 457.751 101.036C451.33 101.036 446.237 99.5685 442.474 96.6339C438.711 93.6649 436.83 89.0905 436.83 82.9107Z" fill="white"/>
<path d="M346.878 100V52.4091H366.194L366.298 62.4037H366.142C368.524 59.0204 372.011 56.2412 376.603 54.0662C381.195 51.8912 386.822 50.8037 393.485 50.8037C400.977 50.8037 407.036 52.7025 411.662 56.5001C416.288 60.2632 418.601 65.4418 418.601 72.0359V100H399.233V75.0394C399.233 70.1716 397.99 66.512 395.505 64.0609C393.054 61.6097 389.48 60.3841 384.785 60.3841C380.746 60.3841 377.104 61.3335 373.858 63.2323C370.648 65.1311 368.127 67.4269 366.298 70.1198V100H346.878Z" fill="white"/>
<path d="M265.108 121.129L265.16 113.62C266.955 113.965 268.768 114.258 270.598 114.5C272.462 114.742 274.344 114.863 276.242 114.863C281.041 114.863 284.873 114.276 287.739 113.102C290.604 111.963 293.539 109.063 296.542 104.402L295.869 104.143L263.244 52.4089H283.026L300.53 78.9232C301.531 80.6149 302.515 82.928 303.482 85.8625C304.448 88.7625 305.052 91.1964 305.294 93.1643H305.346C305.588 91.1964 306.33 88.5726 307.573 85.2929C308.85 82.0131 309.834 79.9071 310.524 78.975L329.582 52.4607L341.907 52.4089L309.23 101.346C304.742 109.252 300.271 114.759 295.817 117.866C291.398 120.973 285.702 122.527 278.728 122.527C275.69 122.527 273.17 122.406 271.167 122.164C269.199 121.923 267.18 121.577 265.108 121.129Z" fill="white"/>
<path d="M190.589 83.377L207.626 83.5841V88.4002C207.626 90.7823 209.318 92.5603 212.701 93.7341C216.119 94.9079 221.125 95.4948 227.719 95.4948C234.003 95.4948 238.56 95.046 241.391 94.1484C244.256 93.2162 245.672 91.5764 245.637 89.2287C245.603 87.1918 243.876 85.7591 240.459 84.9305C237.075 84.0674 231.137 83.2906 222.644 82.6002C210.872 81.6335 203.017 79.8383 199.082 77.2145C195.146 74.5906 193.178 71.0865 193.178 66.702C193.178 61.4198 196.13 57.4496 202.034 54.7912C207.972 52.0984 216.309 50.752 227.046 50.752C237.541 50.752 245.723 52.2537 251.592 55.2573C257.496 58.2609 260.465 62.1448 260.5 66.9091V68.9805H243.514V64.5787C243.514 61.8514 241.874 59.918 238.594 58.7787C235.314 57.6049 230.826 57.018 225.13 57.018C219.848 57.018 215.722 57.3115 212.753 57.8984C209.784 58.4853 208.3 60.0734 208.3 62.6627C208.3 64.7686 210.078 66.2186 213.634 67.0127C217.189 67.7722 222.817 68.4109 230.516 68.9287C242.841 69.8954 251.144 71.5871 255.425 74.0037C259.74 76.4204 261.898 79.6139 261.898 83.5841C261.898 89.5222 258.86 93.9758 252.784 96.9448C246.707 99.8793 237.99 101.347 226.632 101.347C215.204 101.347 206.366 99.9311 200.117 97.1002C193.903 94.2692 190.744 90.2645 190.641 85.0859L190.589 83.377Z" fill="white"/>
<defs>
<clipPath id="clip0_75_671">
<rect width="169" height="127" fill="white"/>
</clipPath>
</defs>
</svg>
